# Blender v2.76 (sub 0) OBJ File: 'Cookie.blend'
# www.blender.org
o Cylinder
v -0.459065 1.308445 -1.301843
v -0.448066 1.685464 -1.480080
v -0.186319 1.323330 -0.844522
v -0.097092 1.674297 -1.112213
v 0.004131 1.325855 -0.696297
v 0.119157 1.679620 -0.823997
v 0.157950 1.321350 -0.547521
v 0.242212 1.677720 -0.617655
v 0.354498 1.323224 -0.397382
v 0.397779 1.681331 -0.417672
v 0.595564 1.366789 -0.232493
v 0.615428 1.710112 -0.248710
v 0.826442 1.444019 -0.028301
v 0.804602 1.747077 -0.059228
v 0.945950 1.486910 0.201257
v 0.899014 1.774779 0.178681
v 0.912908 1.474841 0.441491
v 0.882984 1.780731 0.432582
v 0.749005 1.423589 0.673582
v 0.749375 1.740092 0.678650
v 0.541597 1.361483 0.871198
v 0.571556 1.671821 0.894266
v 0.449885 1.342914 1.054356
v 0.476936 1.650456 1.082139
v 0.338982 1.337462 1.235386
v 0.365880 1.647519 1.263638
v 0.179677 1.346206 1.417253
v 0.212170 1.668662 1.473820
v -0.021957 1.356242 1.544274
v 0.031010 1.686262 1.641501
v -0.231485 1.364267 1.625832
v -0.178179 1.697471 1.751927
v -0.474887 1.357897 1.616654
v -0.432130 1.702353 1.775788
v -0.748579 1.356601 1.581678
v -0.752708 1.710667 1.767522
v -1.029806 1.371481 1.596419
v -1.082184 1.717853 1.762168
v -1.283101 1.378832 1.552585
v -1.349000 1.715786 1.685690
v -1.500014 1.362178 1.398091
v -1.552772 1.701033 1.505602
v -1.622069 1.343790 1.180491
v -1.686964 1.664712 1.255537
v -1.663932 1.332878 0.930563
v -1.757051 1.656815 1.005476
v -1.727967 1.345908 0.666930
v -1.810964 1.690662 0.708739
v -2.096889 1.466126 0.448595
v -2.098325 1.811711 0.434096
v -2.222131 1.518980 0.186869
v -2.161393 1.827676 0.153366
v -1.948127 1.368868 -0.085795
v -2.001220 1.782659 -0.104615
v -1.617340 1.329403 -0.293200
v -1.720005 1.726918 -0.343513
v -1.450924 1.334915 -0.499391
v -1.518305 1.697177 -0.565463
v -1.274671 1.340050 -0.657721
v -1.391194 1.699730 -0.888143
v -1.071897 1.323680 -1.164068
v -1.066363 1.697296 -1.412857
v -0.748119 1.312271 -1.468813
v -0.749951 1.699367 -1.544959
vn 0.677900 -0.330300 -0.656800
vn 0.673500 -0.548900 -0.495200
vn 0.777200 -0.421400 -0.467400
vn 0.783800 -0.129100 -0.607400
vn 0.617600 -0.072700 -0.783100
vn 0.709600 -0.020700 -0.704300
vn 0.917900 0.120000 -0.378200
vn 0.984600 0.165100 0.058300
vn 0.867500 0.099100 0.487400
vn 0.773200 -0.011100 0.634100
vn 0.892200 -0.118500 0.435900
vn 0.847600 -0.120600 0.516700
vn 0.784700 -0.183000 0.592300
vn 0.629200 -0.310900 0.712400
vn 0.416000 -0.379300 0.826500
vn 0.080200 -0.364000 0.927900
vn -0.034200 -0.415600 0.908900
vn -0.024100 -0.434500 0.900400
vn -0.250000 -0.397600 0.882800
vn -0.592600 -0.393500 0.702800
vn -0.827500 -0.282800 0.485100
vn -0.930000 -0.250900 0.268600
vn -0.943200 -0.302800 0.136800
vn -0.684500 0.027700 0.728500
vn -0.950900 0.211600 0.225700
vn -0.836400 0.106200 -0.537800
vn -0.656400 -0.118100 -0.745100
vn -0.730600 -0.268200 -0.628000
vn -0.818000 -0.473900 -0.326000
vn -0.806400 -0.319500 -0.497700
vn 0.007400 1.000000 0.006300
vn 0.198100 -0.188300 -0.961900
vn -0.377900 -0.180400 -0.908100
vn -0.054800 -0.996500 -0.063600
vn 0.743700 -0.514600 -0.426800
vn 0.556300 -0.436200 -0.707300
vn 0.660400 -0.292300 -0.691700
vn 0.583200 -0.287400 -0.759800
vn 0.574900 -0.115400 -0.810000
vn 0.674400 -0.073700 -0.734700
vn 0.885600 0.016500 -0.464100
vn 0.985000 0.100400 0.140500
vn 0.817900 -0.010200 0.575300
vn 0.703400 -0.120000 0.700600
vn 0.892700 -0.117800 0.435000
vn 0.848000 -0.121200 0.515900
vn 0.743400 -0.124400 0.657200
vn 0.515400 -0.198200 0.833700
vn 0.333700 -0.315300 0.888400
vn -0.023400 -0.416900 0.908700
vn -0.110200 -0.462900 0.879500
vn 0.021800 -0.464400 0.885300
vn -0.165200 -0.445900 0.879700
vn -0.530600 -0.330300 0.780600
vn -0.826700 -0.281100 0.487400
vn -0.935900 -0.308400 0.170200
vn -0.942900 -0.253200 0.216500
vn -0.550000 -0.229800 0.802900
vn -0.900800 0.014500 0.434000
vn -0.733300 -0.124500 -0.668400
vn -0.536000 -0.240900 -0.809100
vn -0.749900 -0.251100 -0.612000
vn -0.642700 -0.251500 -0.723600
vn -0.824900 -0.469200 -0.315200
vn 0.012800 0.999800 0.012900
vn 0.028100 0.996200 0.082800
vn 0.020300 0.999700 0.011000
vn 0.238100 0.969700 0.054000
vn 0.021100 0.999700 0.008400
vn 0.200400 0.978400 0.051000
vn 0.263900 0.964500 -0.004400
vn -0.158900 0.977300 0.140300
vn 0.060300 0.982700 -0.175100
vn 0.023100 0.993900 -0.107600
vn 0.027500 0.997600 -0.063900
vn 0.011700 0.996800 -0.078900
vn 0.007800 0.995500 -0.094400
vn -0.338700 0.940700 0.018500
vn 0.033000 0.998100 -0.051800
vn 0.006200 0.995200 -0.097700
vn 0.023800 0.990900 -0.132300
vn 0.374000 0.927300 0.017400
vn -0.037600 0.999100 -0.021000
vn 0.013600 0.999600 0.024500
vn -0.315500 0.948800 -0.014600
vn -0.198000 0.979600 -0.035500
vn 0.011100 0.999900 0.002600
vn -0.187200 0.982300 -0.004700
vn 0.010300 0.999600 -0.026000
vn 0.014600 0.999500 -0.029400
vn -0.000900 0.993600 0.112500
vn -0.151800 0.988000 0.027300
vn 0.007700 0.999900 0.006900
vn 0.456500 -0.391100 -0.799200
vn -0.628400 -0.424700 -0.651700
vn -0.021600 -0.999700 0.014500
vn -0.010200 -0.999500 0.030100
vn 0.175300 -0.984500 0.003800
vn -0.015500 -0.999000 0.041700
vn -0.015200 -0.999400 0.032400
vn -0.010500 -0.999500 0.028100
vn 0.063300 -0.997700 0.024400
vn -0.011600 -0.999800 -0.018200
vn 0.295400 -0.955300 0.009900
vn 0.338900 -0.940800 -0.000700
vn -0.071000 -0.988200 -0.135700
vn 0.306300 -0.951900 0.006100
vn -0.009700 -0.999000 -0.043200
vn -0.452100 -0.891200 0.036400
vn -0.008200 -0.999900 0.007500
vn 0.001100 -0.999600 0.028400
vn 0.311800 -0.950100 0.006700
vn -0.347900 -0.934700 0.073300
vn -0.020700 -0.995200 0.095700
vn -0.116200 -0.993200 0.003700
vn 0.018200 -0.999000 0.040600
vn -0.061700 -0.979400 0.192200
vn 0.020200 -0.988600 0.149300
vn -0.047200 -0.993600 0.102600
vn 0.073500 -0.995000 -0.067000
vn -0.003300 -0.999900 0.015200
vn -0.043400 -0.999000 0.010000
vn 0.007400 -0.997600 0.069300
vn 0.016800 -0.999600 0.023700
s off
f 1//1 2//1 4//1
f 3//2 4//2 6//2
f 5//3 6//3 8//3
f 8//4 10//4 9//4
f 10//5 12//5 11//5
f 12//6 14//6 13//6
f 14//7 16//7 15//7
f 15//8 16//8 18//8
f 17//9 18//9 20//9
f 19//10 20//10 22//10
f 21//11 22//11 24//11
f 24//12 26//12 25//12
f 26//13 28//13 27//13
f 28//14 30//14 29//14
f 30//15 32//15 31//15
f 31//16 32//16 34//16
f 33//17 34//17 36//17
f 36//18 38//18 37//18
f 38//19 40//19 39//19
f 39//20 40//20 42//20
f 41//21 42//21 44//21
f 43//22 44//22 46//22
f 45//23 46//23 48//23
f 48//24 50//24 49//24
f 50//25 52//25 51//25
f 51//26 52//26 54//26
f 53//27 54//27 56//27
f 55//28 56//28 58//28
f 58//29 60//29 59//29
f 60//30 62//30 61//30
f 48//31 22//31 10//31
f 63//32 64//32 2//32
f 62//33 64//33 63//33
f 33//34 23//34 25//34
f 3//35 1//35 4//35
f 5//36 3//36 6//36
f 7//37 5//37 8//37
f 7//38 8//38 9//38
f 9//39 10//39 11//39
f 11//40 12//40 13//40
f 13//41 14//41 15//41
f 17//42 15//42 18//42
f 19//43 17//43 20//43
f 21//44 19//44 22//44
f 23//45 21//45 24//45
f 23//46 24//46 25//46
f 25//47 26//47 27//47
f 27//48 28//48 29//48
f 29//49 30//49 31//49
f 33//50 31//50 34//50
f 35//51 33//51 36//51
f 35//52 36//52 37//52
f 37//53 38//53 39//53
f 41//54 39//54 42//54
f 43//55 41//55 44//55
f 45//56 43//56 46//56
f 47//57 45//57 48//57
f 47//58 48//58 49//58
f 49//59 50//59 51//59
f 53//60 51//60 54//60
f 55//61 53//61 56//61
f 57//62 55//62 58//62
f 57//63 58//63 59//63
f 59//64 60//64 61//64
f 6//65 60//65 58//65
f 2//66 64//66 62//66
f 62//67 4//67 2//67
f 56//68 54//68 48//68
f 62//69 60//69 4//69
f 58//70 56//70 48//70
f 52//71 50//71 54//71
f 48//72 46//72 36//72
f 44//73 42//73 38//73
f 40//74 38//74 42//74
f 36//75 34//75 26//75
f 32//76 30//76 34//76
f 28//77 26//77 34//77
f 22//78 20//78 12//78
f 26//79 48//79 36//79
f 34//80 30//80 28//80
f 44//81 38//81 36//81
f 54//82 50//82 48//82
f 46//83 44//83 36//83
f 26//84 24//84 48//84
f 20//85 18//85 14//85
f 16//86 14//86 18//86
f 8//87 6//87 58//87
f 14//88 12//88 20//88
f 10//89 8//89 58//89
f 60//90 6//90 4//90
f 48//91 24//91 22//91
f 22//92 12//92 10//92
f 10//93 58//93 48//93
f 1//94 63//94 2//94
f 61//95 62//95 63//95
f 63//96 1//96 61//96
f 3//97 5//97 59//97
f 9//98 11//98 21//98
f 61//99 1//99 3//99
f 7//100 9//100 21//100
f 61//101 3//101 59//101
f 55//102 57//102 47//102
f 59//103 5//103 7//103
f 11//104 19//104 21//104
f 15//105 17//105 13//105
f 21//106 23//106 35//106
f 17//107 19//107 13//107
f 59//108 7//108 57//108
f 51//109 53//109 49//109
f 57//110 7//110 47//110
f 23//111 33//111 35//111
f 13//112 19//112 11//112
f 49//113 53//113 47//113
f 41//114 43//114 37//114
f 47//115 53//115 55//115
f 43//116 45//116 37//116
f 37//117 39//117 41//117
f 31//118 33//118 29//118
f 35//119 37//119 45//119
f 45//120 47//120 35//120
f 7//121 35//121 47//121
f 27//122 29//122 25//122
f 33//123 25//123 29//123
f 7//124 21//124 35//124
