# Blender v2.76 (sub 0) OBJ File: ''
# www.blender.org
mtllib FinalSlice.mtl
o Circle_Circle.000
v 0.000241 -0.006361 0.001775
v 0.831711 -0.006361 0.557346
v 0.831711 0.039739 0.557346
v 0.000241 0.039739 0.001775
v 0.000241 0.058337 0.001775
v 0.831711 0.058337 0.557346
v 0.981026 -0.006361 0.196865
v 0.981026 -0.006361 0.196865
v 0.981026 0.058337 0.196865
v 0.981026 0.058337 0.196865
v 0.000241 -0.006361 0.001775
v 0.831711 -0.006361 0.557346
v 0.831711 0.058337 0.557346
v 0.000241 0.058337 0.001775
v 1.000241 -0.006361 0.001774
v 1.000241 0.058337 0.001774
v 1.000241 -0.006361 0.001774
v 1.000241 -0.006361 0.001774
v 1.000241 0.058337 0.001774
v 1.000241 0.058337 0.001774
v 1.000241 0.058337 0.001774
v 0.981026 0.058337 0.196865
v 0.981026 0.058337 0.196865
v 0.981026 -0.006361 0.196865
v 0.981026 -0.006361 0.196865
v 1.000241 -0.006361 0.001774
v 1.000241 0.039739 0.001774
v 0.000241 0.056936 0.001775
v 1.000241 0.056936 0.001774
v 0.924121 -0.006361 0.384458
v 0.981026 0.039739 0.196865
v 0.924121 0.039739 0.384458
v 0.831711 0.056936 0.557346
v 0.924121 0.056936 0.384458
v 0.981026 0.056936 0.196865
v 0.924121 -0.006361 0.384458
v 0.924121 -0.006361 0.384458
v 0.924121 -0.006361 0.384458
v 0.831711 -0.006361 0.557346
v 0.924121 -0.006361 0.384458
v 0.831711 -0.006361 0.557346
v 0.000241 -0.006361 0.001775
v 0.981026 -0.006361 0.196865
v 0.831711 -0.006361 0.557346
v 0.924121 -0.006361 0.384458
v 1.000241 -0.006361 0.001774
v 0.000241 -0.006361 0.001775
v 0.981026 -0.006361 0.196865
v 0.831711 -0.006361 0.557346
v 0.924121 -0.006361 0.384458
vt 0.836360 0.890842
vt 0.141112 0.890842
vt 0.141112 0.852295
vt 0.836360 0.852295
vt 0.836360 0.836744
vt 0.141112 0.836744
vt 0.301614 0.016259
vt 0.836360 0.945325
vt 0.141112 0.945325
vt 0.141112 0.891227
vt 0.836360 0.891227
vt 0.000192 0.890842
vt 0.000192 0.836744
vt 0.464742 0.000192
vt 0.000192 0.141112
vt 0.464742 0.836360
vt 0.163321 0.999808
vt 0.000192 0.999808
vt 0.000192 0.945710
vt 0.163321 0.945710
vt 0.984160 0.464742
vt 0.984160 0.301614
vt 0.930062 0.301614
vt 0.930062 0.464742
vt 0.000192 0.945325
vt 0.000192 0.891227
vt 0.000192 0.852295
vt 0.836360 0.837916
vt 0.000192 0.837916
vt 0.984160 0.144755
vt 0.945612 0.301614
vt 0.945612 0.144755
vt 0.984160 0.000192
vt 0.945612 0.000192
vt 0.945612 0.464742
vt 0.465127 0.695440
vt 0.929677 0.000192
vt 0.929677 0.836360
vt 0.766549 0.820293
vt 0.609689 0.772710
vt 0.931233 0.301614
vt 0.931233 0.144755
vt 0.141112 0.837916
vt 0.931233 0.000192
vt 0.931233 0.464742
vn -0.555600 -0.000000 0.831500
vn 0.555600 0.000000 -0.831500
vn 0.000000 0.000000 1.000000
vn 0.995200 0.000000 0.098000
vn -0.995200 0.000000 -0.098000
vn -0.000000 0.000000 -1.000000
vn 0.956900 0.000000 0.290300
vn 0.881900 0.000000 0.471400
vn 0.000000 1.000000 0.000000
usemtl Material.001
s 1
f 1/1/1 2/2/1 3/3/1 4/4/1
f 2/2/2 1/1/2 5/5/2 6/6/2
f 7/7/3 8/7/3 9/7/3 10/7/3
f 11/8/1 12/9/1 13/10/1 14/11/1
f 1/1/3 15/12/3 16/13/3 5/5/3
f 17/14/3 18/14/3 19/14/3 20/14/3
f 6/15/3 5/16/3 14/16/3 13/15/3
f 5/16/3 16/14/3 21/14/3 14/16/3
f 16/14/3 22/7/3 10/7/3 21/14/3
f 21/14/3 10/7/3 9/7/3 19/14/3
f 19/14/3 9/7/3 23/7/3 20/14/3
f 24/7/3 7/7/3 10/7/3 22/7/3
f 25/17/4 17/18/4 20/19/4 23/20/4
f 18/14/3 26/14/3 21/14/3 19/14/3
f 8/7/3 25/7/3 23/7/3 9/7/3
f 12/15/3 2/15/3 6/15/3 13/15/3
f 15/21/5 24/22/5 22/23/5 16/24/5
f 26/25/6 11/8/6 14/11/6 21/26/6
f 27/27/6 4/4/6 28/28/6 29/29/6
f 30/30/7 24/22/7 31/31/7 32/32/7
f 15/12/6 1/1/6 4/4/6 27/27/6
f 2/33/8 30/30/8 32/32/8 3/34/8
f 24/22/4 15/21/4 27/35/4 31/31/4
f 29/36/9 28/37/9 33/38/9 34/39/9 35/40/9
f 32/32/7 31/31/7 35/41/7 34/42/7
f 4/4/1 3/3/1 33/43/1 28/28/1
f 3/34/8 32/32/8 34/42/8 33/44/8
f 31/31/4 27/35/4 29/45/4 35/41/4
