# 3ds Max Wavefront OBJ Exporter v0.97b - (c)2007 guruware
# File Created: 24.10.2015 05:11:15

mtllib Man001.mtl

#
# object Man001
#

v  -9.0000 0.0000 -6.0000
v  -3.0000 0.0000 -6.0000
v  -3.0000 0.0000 6.0000
v  -9.0000 0.0000 6.0000
v  -3.0000 36.0000 6.0000
v  -3.0000 36.0000 -6.0000
v  -9.0000 36.0000 -6.0000
v  -9.0000 36.0000 6.0000
v  3.0000 0.0000 -6.0000
v  9.0000 0.0000 -6.0000
v  9.0000 0.0000 6.0000
v  3.0000 0.0000 6.0000
v  9.0000 36.0000 6.0000
v  9.0000 36.0000 -6.0000
v  3.0000 36.0000 -6.0000
v  3.0000 36.0000 6.0000
v  -12.0000 36.0000 -3.0000
v  12.0000 36.0000 -3.0000
v  12.0000 36.0000 3.0000
v  -12.0000 36.0000 3.0000
v  12.0000 65.0000 3.0000
v  12.0000 65.0000 -3.0000
v  -12.0000 65.0000 -3.0000
v  -12.0000 65.0000 3.0000
v  0.0000 76.8000 -0.0000
v  0.0000 75.0426 -4.2426
v  -3.0000 75.0426 -3.0000
v  -4.2426 75.0426 -0.0000
v  -3.0000 75.0426 3.0000
v  0.0000 75.0426 4.2426
v  3.0000 75.0426 3.0000
v  4.2426 75.0426 -0.0000
v  3.0000 75.0426 -3.0000
v  0.0000 70.8000 -6.0000
v  -4.2426 70.8000 -4.2426
v  -6.0000 70.8000 -0.0000
v  -4.2426 70.8000 4.2426
v  0.0000 70.8000 6.0000
v  4.2426 70.8000 4.2426
v  6.0000 70.8000 -0.0000
v  4.2426 70.8000 -4.2426
v  0.0000 66.5574 -4.2426
v  -3.0000 66.5574 -3.0000
v  -4.2426 66.5574 -0.0000
v  -3.0000 66.5574 3.0000
v  0.0000 66.5574 4.2426
v  3.0000 66.5574 3.0000
v  4.2426 66.5574 -0.0000
v  3.0000 66.5574 -3.0000
v  0.0000 64.8000 -0.0000
v  -26.1213 47.4159 -2.4000
v  -21.8787 43.1732 -2.4000
v  -21.8787 43.1732 2.4000
v  -26.1213 47.4159 2.4000
v  -4.9081 60.1438 2.4000
v  -4.9081 60.1438 -2.4000
v  -9.1508 64.3864 -2.4000
v  -9.1508 64.3864 2.4000
v  21.8787 43.1732 -2.4000
v  26.1213 47.4159 -2.4000
v  26.1213 47.4159 2.4000
v  21.8787 43.1732 2.4000
v  9.1508 64.3864 2.4000
v  9.1508 64.3864 -2.4000
v  4.9081 60.1438 -2.4000
v  4.9081 60.1438 2.4000
# 66 vertices

vn -0.5774 -0.5774 -0.5774
vn 0.5774 -0.5774 -0.5774
vn 0.5774 -0.5774 0.5774
vn -0.5774 -0.5774 0.5774
vn 0.5774 0.5774 0.5774
vn 0.5774 0.5774 -0.5774
vn -0.5774 0.5774 -0.5774
vn -0.5774 0.5774 0.5774
vn 0.0000 1.0000 -0.0000
vn 0.0000 0.6630 -0.7486
vn -0.5294 0.6630 -0.5294
vn -0.7486 0.6630 -0.0000
vn -0.5294 0.6630 0.5294
vn -0.0000 0.6630 0.7486
vn 0.5294 0.6630 0.5294
vn 0.7486 0.6630 0.0000
vn 0.5294 0.6630 -0.5294
vn 0.0000 0.0000 -1.0000
vn -0.7071 -0.0000 -0.7071
vn -1.0000 0.0000 -0.0000
vn -0.7071 -0.0000 0.7071
vn 0.0000 0.0000 1.0000
vn 0.7071 -0.0000 0.7071
vn 1.0000 0.0000 -0.0000
vn 0.7071 -0.0000 -0.7071
vn -0.0000 -0.6630 -0.7486
vn -0.5294 -0.6630 -0.5294
vn -0.7486 -0.6630 0.0000
vn -0.5294 -0.6630 0.5294
vn 0.0000 -0.6630 0.7486
vn 0.5294 -0.6630 0.5294
vn 0.7486 -0.6630 -0.0000
vn 0.5294 -0.6630 -0.5294
vn 0.0000 -1.0000 -0.0000
vn -0.8165 0.0000 -0.5774
vn -0.0000 -0.8165 -0.5773
vn -0.0000 -0.8165 0.5773
vn -0.8165 0.0000 0.5774
vn 0.8165 0.0000 0.5773
vn 0.8165 0.0000 -0.5773
vn -0.0000 0.8165 -0.5774
vn -0.0000 0.8165 0.5774
vn 0.0000 -0.8165 -0.5773
vn 0.8165 0.0000 -0.5774
vn 0.8165 0.0000 0.5774
vn 0.0000 -0.8165 0.5773
vn 0.0000 0.8165 0.5774
vn 0.0000 0.8165 -0.5774
vn -0.8165 0.0000 -0.5773
vn -0.8165 0.0000 0.5773
# 50 vertex normals

vt 0.4213 0.0886 0.0000
vt 0.3919 0.0886 0.0000
vt 0.3919 0.0296 0.0000
vt 0.4213 0.0296 0.0000
vt 0.4091 0.3094 0.0000
vt 0.4091 0.3684 0.0000
vt 0.3796 0.3684 0.0000
vt 0.3796 0.3094 0.0000
vt 0.3821 0.2822 0.0000
vt 0.3821 0.1053 0.0000
vt 0.4116 0.1053 0.0000
vt 0.4116 0.2822 0.0000
vt 0.3751 0.2862 0.0000
vt 0.3751 0.1093 0.0000
vt 0.4341 0.1093 0.0000
vt 0.4341 0.2862 0.0000
vt 0.3921 0.2854 0.0000
vt 0.3921 0.1085 0.0000
vt 0.4215 0.1085 0.0000
vt 0.4215 0.2854 0.0000
vt 0.3733 0.2831 0.0000
vt 0.3733 0.1062 0.0000
vt 0.4323 0.1062 0.0000
vt 0.4323 0.2831 0.0000
vt 0.4926 0.0835 0.0000
vt 0.4631 0.0835 0.0000
vt 0.4631 0.0246 0.0000
vt 0.4926 0.0246 0.0000
vt 0.5081 0.3115 0.0000
vt 0.5081 0.3704 0.0000
vt 0.4786 0.3704 0.0000
vt 0.4786 0.3115 0.0000
vt 0.5058 0.1117 0.0000
vt 0.5058 0.2886 0.0000
vt 0.4763 0.2886 0.0000
vt 0.4763 0.1117 0.0000
vt 0.5295 0.1053 0.0000
vt 0.5295 0.2822 0.0000
vt 0.4706 0.2822 0.0000
vt 0.4706 0.1053 0.0000
vt 0.4821 0.2822 0.0000
vt 0.4821 0.1053 0.0000
vt 0.5116 0.1053 0.0000
vt 0.5116 0.2822 0.0000
vt 0.4666 0.2911 0.0000
vt 0.4666 0.1142 0.0000
vt 0.5256 0.1142 0.0000
vt 0.5256 0.2911 0.0000
vt 0.5422 0.4455 0.0000
vt 0.4243 0.4455 0.0000
vt 0.4243 0.4160 0.0000
vt 0.5422 0.4160 0.0000
vt 0.4287 0.7082 0.0000
vt 0.4287 0.6787 0.0000
vt 0.5467 0.6787 0.0000
vt 0.5467 0.7082 0.0000
vt 0.3562 0.6314 0.0000
vt 0.3562 0.4889 0.0000
vt 0.4741 0.4889 0.0000
vt 0.4741 0.6314 0.0000
vt 0.6765 0.4850 0.0000
vt 0.6765 0.6276 0.0000
vt 0.6470 0.6276 0.0000
vt 0.6470 0.4850 0.0000
vt 0.4882 0.6319 0.0000
vt 0.4882 0.4894 0.0000
vt 0.6061 0.4894 0.0000
vt 0.6061 0.6319 0.0000
vt 0.2829 0.6234 0.0000
vt 0.2829 0.4809 0.0000
vt 0.3124 0.4809 0.0000
vt 0.3124 0.6234 0.0000
vt 0.4971 0.8898 0.0000
vt 0.4778 0.8976 0.0000
vt 0.4779 0.8817 0.0000
vt 0.4893 0.8705 0.0000
vt 0.5053 0.8707 0.0000
vt 0.5164 0.8821 0.0000
vt 0.5163 0.8980 0.0000
vt 0.5049 0.9092 0.0000
vt 0.4889 0.9090 0.0000
vt 0.4981 0.9425 0.0000
vt 0.4772 0.9425 0.0000
vt 0.4833 0.9217 0.0000
vt 0.4981 0.9217 0.0000
vt 0.4621 0.8880 0.0000
vt 0.4412 0.8880 0.0000
vt 0.4412 0.8672 0.0000
vt 0.4560 0.8672 0.0000
vt 0.4204 0.8880 0.0000
vt 0.4265 0.8672 0.0000
vt 0.4725 0.8321 0.0000
vt 0.4933 0.8321 0.0000
vt 0.4933 0.8529 0.0000
vt 0.4786 0.8529 0.0000
vt 0.5142 0.8321 0.0000
vt 0.5080 0.8529 0.0000
vt 0.5761 0.8904 0.0000
vt 0.5553 0.8904 0.0000
vt 0.5553 0.8695 0.0000
vt 0.5700 0.8695 0.0000
vt 0.5344 0.8904 0.0000
vt 0.5405 0.8695 0.0000
vt 0.5189 0.9425 0.0000
vt 0.5128 0.9217 0.0000
vt 0.4981 0.9634 0.0000
vt 0.4833 0.9634 0.0000
vt 0.4560 0.9089 0.0000
vt 0.4412 0.9089 0.0000
vt 0.4265 0.9089 0.0000
vt 0.4786 0.8112 0.0000
vt 0.4933 0.8112 0.0000
vt 0.5080 0.8112 0.0000
vt 0.5700 0.9112 0.0000
vt 0.5553 0.9112 0.0000
vt 0.5405 0.9112 0.0000
vt 0.5128 0.9634 0.0000
vt 0.4926 0.7701 0.0000
vt 0.5008 0.7509 0.0000
vt 0.5120 0.7623 0.0000
vt 0.4848 0.7508 0.0000
vt 0.4734 0.7619 0.0000
vt 0.4733 0.7779 0.0000
vt 0.4845 0.7893 0.0000
vt 0.5004 0.7894 0.0000
vt 0.5118 0.7783 0.0000
vt 0.1455 0.4791 0.0000
vt 0.1455 0.4583 0.0000
vt 0.1691 0.4583 0.0000
vt 0.1691 0.4791 0.0000
vt 0.1458 0.5670 0.0000
vt 0.1694 0.5670 0.0000
vt 0.1694 0.5879 0.0000
vt 0.1458 0.5879 0.0000
vt 0.2178 0.4708 0.0000
vt 0.2178 0.5887 0.0000
vt 0.1883 0.5887 0.0000
vt 0.1883 0.4708 0.0000
vt 0.1868 0.5879 0.0000
vt 0.1868 0.5045 0.0000
vt 0.2104 0.5045 0.0000
vt 0.2104 0.5879 0.0000
vt 0.1849 0.5953 0.0000
vt 0.1849 0.4773 0.0000
vt 0.2144 0.4773 0.0000
vt 0.2144 0.5953 0.0000
vt 0.1691 0.5625 0.0000
vt 0.1455 0.5625 0.0000
vt 0.7957 0.4916 0.0000
vt 0.7957 0.5124 0.0000
vt 0.7721 0.5124 0.0000
vt 0.7721 0.4916 0.0000
vt 0.7458 0.6063 0.0000
vt 0.7223 0.6063 0.0000
vt 0.7228 0.5854 0.0000
vt 0.7464 0.5854 0.0000
vt 0.7505 0.4885 0.0000
vt 0.7505 0.6065 0.0000
vt 0.7210 0.6065 0.0000
vt 0.7210 0.4885 0.0000
vt 0.7957 0.5958 0.0000
vt 0.7721 0.5958 0.0000
vt 0.7202 0.6065 0.0000
vt 0.7202 0.4886 0.0000
vt 0.7497 0.4886 0.0000
vt 0.7497 0.6065 0.0000
vt 0.7464 0.5020 0.0000
vt 0.7228 0.5020 0.0000
# 168 texture coords

g Man001
usemtl Material__10
f 1/1/1 2/2/2 3/3/3 4/4/4 
f 5/5/5 6/6/6 7/7/7 8/8/8 
f 3/9/3 5/10/5 8/11/8 4/12/4 
f 2/13/2 6/14/6 5/15/5 3/16/3 
f 1/17/1 7/18/7 6/19/6 2/20/2 
f 4/21/4 8/22/8 7/23/7 1/24/1 
f 9/25/1 10/26/2 11/27/3 12/28/4 
f 13/29/5 14/30/6 15/31/7 16/32/8 
f 11/33/3 13/34/5 16/35/8 12/36/4 
f 10/37/2 14/38/6 13/39/5 11/40/3 
f 9/41/1 15/42/7 14/43/6 10/44/2 
f 12/45/4 16/46/8 15/47/7 9/48/1 
f 17/49/1 18/50/2 19/51/3 20/52/4 
f 21/53/5 22/54/6 23/55/7 24/56/8 
f 19/57/3 21/58/5 24/59/8 20/60/4 
f 18/61/2 22/62/6 21/63/5 19/64/3 
f 17/65/1 23/66/7 22/67/6 18/68/2 
f 20/69/4 24/70/8 23/71/7 17/72/1 
f 25/73/9 26/74/10 27/75/11 
f 25/73/9 27/75/11 28/76/12 
f 25/73/9 28/76/12 29/77/13 
f 25/73/9 29/77/13 30/78/14 
f 25/73/9 30/78/14 31/79/15 
f 25/73/9 31/79/15 32/80/16 
f 25/73/9 32/80/16 33/81/17 
f 25/73/9 33/81/17 26/74/10 
f 34/82/18 35/83/19 27/84/11 26/85/10 
f 35/86/19 36/87/20 28/88/12 27/89/11 
f 36/87/20 37/90/21 29/91/13 28/88/12 
f 37/92/21 38/93/22 30/94/14 29/95/13 
f 38/93/22 39/96/23 31/97/15 30/94/14 
f 39/98/23 40/99/24 32/100/16 31/101/15 
f 40/99/24 41/102/25 33/103/17 32/100/16 
f 41/104/25 34/82/18 26/85/10 33/105/17 
f 42/106/26 43/107/27 35/83/19 34/82/18 
f 43/108/27 44/109/28 36/87/20 35/86/19 
f 44/109/28 45/110/29 37/90/21 36/87/20 
f 45/111/29 46/112/30 38/93/22 37/92/21 
f 46/112/30 47/113/31 39/96/23 38/93/22 
f 47/114/31 48/115/32 40/99/24 39/98/23 
f 48/115/32 49/116/33 41/102/25 40/99/24 
f 49/117/33 42/106/26 34/82/18 41/104/25 
f 50/118/34 43/119/27 42/120/26 
f 50/118/34 44/121/28 43/119/27 
f 50/118/34 45/122/29 44/121/28 
f 50/118/34 46/123/30 45/122/29 
f 50/118/34 47/124/31 46/123/30 
f 50/118/34 48/125/32 47/124/31 
f 50/118/34 49/126/33 48/125/32 
f 50/118/34 42/120/26 49/126/33 
f 51/127/35 52/128/36 53/129/37 54/130/38 
f 55/131/39 56/132/40 57/133/41 58/134/42 
f 53/135/37 55/136/39 58/137/42 54/138/38 
f 52/139/36 56/140/40 55/141/39 53/142/37 
f 51/143/35 57/144/41 56/145/40 52/146/36 
f 54/130/38 58/147/42 57/148/41 51/127/35 
f 59/149/43 60/150/44 61/151/45 62/152/46 
f 63/153/47 64/154/48 65/155/49 66/156/50 
f 61/157/45 63/158/47 66/159/50 62/160/46 
f 60/150/44 64/161/48 63/162/47 61/151/45 
f 59/163/43 65/164/49 64/165/48 60/166/44 
f 62/167/46 66/156/50 65/155/49 59/168/43 
# 46 polygons - 16 triangles

