# Blender v2.76 (sub 0) OBJ File: 'pizzaslice.blend'
# www.blender.org
o Circle_Circle.001
v 0.003683 1.427629 -0.084499
v -0.015531 1.427629 0.110591
v -0.072437 1.427629 0.298184
v -0.164847 1.427629 0.471071
v -0.072437 1.427629 0.298184
v -0.996316 1.427629 -0.084498
v 0.003683 1.427629 -0.084499
v -0.015531 1.427629 0.110591
v -0.164847 1.427629 0.471071
v -0.072437 1.427629 0.298184
v -0.996316 1.427629 -0.084498
v 0.003683 1.427629 -0.084499
v -0.015531 1.427629 0.110591
v -0.164847 1.427629 0.471071
v -0.072437 1.427629 0.298184
v 0.003683 1.427629 -0.084499
v -0.015531 1.427629 0.110591
v -0.164847 1.427629 0.471071
v -0.072437 1.427629 0.298184
v -0.996316 1.427629 -0.084498
v -0.015531 1.427629 0.110591
v -0.164847 1.427629 0.471071
v -0.072437 1.427629 0.298184
v 0.003683 1.427629 -0.084499
v -0.996316 1.427629 -0.084498
v -0.015531 1.427629 0.110591
v -0.164847 1.427629 0.471071
v -0.072437 1.427629 0.298184
v 0.003683 1.492327 -0.084499
v -0.015531 1.492327 0.110591
v -0.996316 1.492327 -0.084498
v -0.164847 1.492327 0.471071
v 0.003683 1.492327 -0.084499
v -0.015531 1.492327 0.110591
v -0.996316 1.492327 -0.084498
v -0.164847 1.492327 0.471071
v 0.003683 1.492327 -0.084499
v -0.015531 1.492327 0.110591
v 0.003683 1.492327 -0.084499
v -0.015531 1.492327 0.110591
v 0.003683 1.473729 -0.084499
v -0.015531 1.473729 0.110591
v -0.072437 1.473729 0.298184
v -0.164847 1.473729 0.471071
v -0.996316 1.473729 -0.084498
v 0.003683 1.490926 -0.084499
v -0.015531 1.490926 0.110591
v -0.072437 1.490926 0.298184
v -0.164847 1.490926 0.471071
v -0.996316 1.490926 -0.084498
vn -0.555600 0.000000 0.831500
vn 0.555600 0.000000 -0.831500
vn 0.000000 0.000000 1.000000
vn 0.995200 0.000000 0.098000
vn -0.995200 0.000000 -0.098000
vn -0.000000 0.000000 -1.000000
vn 0.956900 -0.000000 0.290300
vn 0.881900 -0.000000 0.471400
vn 0.000000 1.000000 -0.000000
s off
f 4//1 44//1 45//1
f 6//2 31//2 32//2
f 8//3 13//3 38//3
f 9//1 36//1 35//1
f 1//3 29//3 31//3
f 16//3 12//3 37//3
f 32//3 31//3 35//3
f 31//3 29//3 33//3
f 29//3 30//3 34//3
f 33//3 34//3 38//3
f 37//3 38//3 40//3
f 2//3 8//3 34//3
f 16//4 39//4 40//4
f 12//3 7//3 33//3
f 13//3 17//3 40//3
f 9//3 4//3 32//3
f 2//5 30//5 29//5
f 11//6 35//6 33//6
f 45//6 50//6 46//6
f 2//7 42//7 43//7
f 6//6 45//6 41//6
f 3//8 43//8 44//8
f 1//4 41//4 42//4
f 50//9 48//9 47//9
f 42//7 47//7 48//7
f 44//1 49//1 50//1
f 43//8 48//8 49//8
f 41//4 46//4 47//4
f 6//1 4//1 45//1
f 4//2 6//2 32//2
f 34//3 8//3 38//3
f 11//1 9//1 35//1
f 6//3 1//3 31//3
f 39//3 16//3 37//3
f 36//3 32//3 35//3
f 35//3 31//3 33//3
f 33//3 29//3 34//3
f 37//3 33//3 38//3
f 39//3 37//3 40//3
f 30//3 2//3 34//3
f 17//4 16//4 40//4
f 37//3 12//3 33//3
f 38//3 13//3 40//3
f 36//3 9//3 32//3
f 1//5 2//5 29//5
f 7//6 11//6 33//6
f 41//6 45//6 46//6
f 3//7 2//7 43//7
f 1//6 6//6 41//6
f 4//8 3//8 44//8
f 2//4 1//4 42//4
f 47//9 46//9 50//9
f 50//9 49//9 48//9
f 43//7 42//7 48//7
f 45//1 44//1 50//1
f 44//8 43//8 49//8
f 42//4 41//4 47//4
l 3 5
l 5 10
l 10 15
l 9 14
l 15 19
l 14 18
l 11 20
l 17 21
l 18 22
l 19 23
l 16 24
l 20 25
l 21 26
l 22 27
l 23 28
