# Blender v2.76 (sub 0) OBJ File: ''
# www.blender.org
mtllib pizzapan.mtl
o Circle
v -0.000518 -0.016890 -1.023651
v -0.195608 -0.016890 -1.004437
v -0.383201 -0.016890 -0.947531
v -0.556088 -0.016890 -0.855121
v -0.707625 -0.016890 -0.730758
v -0.831987 -0.016890 -0.579222
v -0.924397 -0.016890 -0.406335
v -0.981303 -0.016890 -0.218742
v -1.000518 -0.016890 -0.023652
v -0.981303 -0.016890 0.171439
v -0.924397 -0.016890 0.359032
v -0.831987 -0.016890 0.531919
v -0.707625 -0.016890 0.683455
v -0.556088 -0.016890 0.807818
v -0.383201 -0.016890 0.900228
v -0.195608 -0.016890 0.957134
v -0.000517 -0.016890 0.976349
v 0.194573 -0.016890 0.957134
v 0.382166 -0.016890 0.900228
v 0.555053 -0.016890 0.807818
v 0.706589 -0.016890 0.683455
v 0.830952 -0.016890 0.531918
v 0.923362 -0.016890 0.359031
v 0.980268 -0.016890 0.171438
v 0.999482 -0.016890 -0.023652
v 0.980267 -0.016890 -0.218743
v 0.923361 -0.016890 -0.406336
v 0.830951 -0.016890 -0.579223
v 0.706588 -0.016890 -0.730759
v 0.555051 -0.016890 -0.855122
v 0.382164 -0.016890 -0.947532
v 0.194571 -0.016890 -1.004437
v -0.000518 0.013285 -1.023651
v -0.195608 0.013285 -1.004437
v -0.383201 0.013285 -0.947531
v -0.556088 0.013285 -0.855121
v -0.707625 0.013285 -0.730758
v -0.831987 0.013285 -0.579222
v -0.924397 0.013285 -0.406335
v -0.981303 0.013285 -0.218742
v -1.000518 0.013285 -0.023652
v -0.981303 0.013285 0.171439
v -0.924397 0.013285 0.359032
v -0.831987 0.013285 0.531919
v -0.707625 0.013285 0.683455
v -0.556088 0.013285 0.807818
v -0.383201 0.013285 0.900228
v -0.195608 0.013285 0.957134
v -0.000517 0.013285 0.976349
v 0.194573 0.013285 0.957134
v 0.382166 0.013285 0.900228
v 0.555053 0.013285 0.807818
v 0.706589 0.013285 0.683455
v 0.830952 0.013285 0.531918
v 0.923362 0.013285 0.359031
v 0.980268 0.013285 0.171438
v 0.999482 0.013285 -0.023652
v 0.980267 0.013285 -0.218743
v 0.923361 0.013285 -0.406336
v 0.830951 0.013285 -0.579223
v 0.706588 0.013285 -0.730759
v 0.555051 0.013285 -0.855122
v 0.382164 0.013285 -0.947532
v 0.194571 0.013285 -1.004437
vn 0.000000 -1.000000 -0.000000
vn 0.000000 1.000000 0.000000
vn -0.634400 0.000000 -0.773000
vn 0.290300 0.000000 -0.956900
vn 0.290300 0.000000 0.956900
vn -0.773000 0.000000 -0.634400
vn 0.098000 0.000000 -0.995200
vn 0.471400 0.000000 0.881900
vn -0.881900 0.000000 -0.471400
vn 0.634400 0.000000 0.773000
vn -0.956900 0.000000 -0.290300
vn 0.773000 0.000000 0.634400
vn -0.995200 0.000000 -0.098000
vn 0.881900 0.000000 0.471400
vn -0.995200 0.000000 0.098000
vn 0.956900 0.000000 0.290300
vn -0.956900 0.000000 0.290300
vn 0.995200 0.000000 0.098000
vn -0.881900 0.000000 0.471400
vn 0.995200 0.000000 -0.098000
vn -0.773000 0.000000 0.634400
vn 0.956900 0.000000 -0.290300
vn -0.634400 0.000000 0.773000
vn 0.881900 0.000000 -0.471400
vn -0.471400 0.000000 0.881900
vn -0.098000 0.000000 -0.995200
vn 0.773000 0.000000 -0.634400
vn -0.290300 0.000000 0.956900
vn -0.290300 0.000000 -0.956900
vn 0.634400 0.000000 -0.773000
vn -0.098000 0.000000 0.995200
vn -0.471400 0.000000 -0.881900
vn 0.471400 0.000000 -0.881900
vn 0.098000 0.000000 0.995200
usemtl None
s off
f 2//1 1//1 32//1 31//1 30//1 29//1 28//1 27//1 26//1 25//1 24//1 23//1 22//1 21//1 20//1 19//1 18//1 17//1 16//1 15//1 14//1 13//1 12//1 11//1 10//1 9//1 8//1 7//1 6//1 5//1 4//1 3//1
f 34//2 35//2 36//2 37//2 38//2 39//2 40//2 41//2 42//2 43//2 44//2 45//2 46//2 47//2 48//2 49//2 50//2 51//2 52//2 53//2 54//2 55//2 56//2 57//2 58//2 59//2 60//2 61//2 62//2 63//2 64//2 33//2
f 4//3 5//3 37//3 36//3
f 31//4 32//4 64//4 63//4
f 18//5 19//5 51//5 50//5
f 5//6 6//6 38//6 37//6
f 32//7 1//7 33//7 64//7
f 19//8 20//8 52//8 51//8
f 6//9 7//9 39//9 38//9
f 20//10 21//10 53//10 52//10
f 7//11 8//11 40//11 39//11
f 21//12 22//12 54//12 53//12
f 8//13 9//13 41//13 40//13
f 22//14 23//14 55//14 54//14
f 9//15 10//15 42//15 41//15
f 23//16 24//16 56//16 55//16
f 10//17 11//17 43//17 42//17
f 24//18 25//18 57//18 56//18
f 11//19 12//19 44//19 43//19
f 25//20 26//20 58//20 57//20
f 12//21 13//21 45//21 44//21
f 26//22 27//22 59//22 58//22
f 13//23 14//23 46//23 45//23
f 27//24 28//24 60//24 59//24
f 14//25 15//25 47//25 46//25
f 1//26 2//26 34//26 33//26
f 28//27 29//27 61//27 60//27
f 15//28 16//28 48//28 47//28
f 2//29 3//29 35//29 34//29
f 29//30 30//30 62//30 61//30
f 16//31 17//31 49//31 48//31
f 3//32 4//32 36//32 35//32
f 30//33 31//33 63//33 62//33
f 17//34 18//34 50//34 49//34
